<?xml version="1.0" standalone="no"?>
<!DOCTYPE svg PUBLIC "-//W3C//DTD SVG 20010904//EN"
 "http://www.w3.org/TR/2001/REC-SVG-20010904/DTD/svg10.dtd">
<svg version="1.0" xmlns="http://www.w3.org/2000/svg"
 width="455.000000pt" height="455.000000pt" viewBox="0 0 455.000000 455.000000"
 preserveAspectRatio="xMidYMid meet">
<metadata>
Created by potrace 1.11, written by Peter Selinger 2001-2013
</metadata>
<g transform="translate(0.000000,455.000000) scale(0.100000,-0.100000)"
fill="#000000" stroke="none">
<path d="M2141 4534 c-38 -10 -299 -157 -820 -461 -422 -245 -776 -453 -788
-462 -13 -9 -32 -35 -44 -58 -17 -36 -19 -48 -10 -76 6 -19 24 -45 39 -59 32
-30 1559 -915 1617 -937 27 -11 76 -16 155 -16 103 0 121 3 170 26 81 38 1551
897 1578 922 53 49 51 127 -6 180 -15 13 -378 227 -808 475 -575 333 -796 455
-839 467 -73 19 -173 18 -244 -1z m557 -796 c98 -36 146 -109 122 -183 -56
-170 -610 -356 -865 -290 -269 70 -267 248 3 328 209 63 464 29 557 -74 20
-23 35 -49 35 -64 0 -30 1 -30 49 -6 131 67 134 147 10 212 -34 18 -65 24
-141 27 -70 3 -101 8 -110 19 -18 22 12 41 81 48 31 3 63 8 71 10 31 7 137 -8
188 -27z"/>
<path d="M2168 3530 c-135 -17 -250 -64 -285 -117 -16 -25 -16 -26 9 -48 62
-53 266 -58 453 -10 100 26 125 41 125 78 0 76 -130 118 -302 97z"/>
<path d="M288 3145 c-60 -34 -59 -6 -56 -1041 l3 -940 37 -75 c22 -43 57 -93
85 -121 34 -33 262 -173 808 -494 418 -246 774 -453 792 -460 18 -8 49 -14 68
-14 46 0 88 40 104 96 14 52 15 1778 1 1855 -15 82 -71 187 -132 246 -41 40
-228 154 -823 504 -826 485 -820 482 -887 444z m812 -1100 c0 -2 74 -257 165
-567 91 -310 166 -569 168 -577 1 -8 -3 -16 -8 -18 -6 -2 -172 90 -370 205
-247 143 -359 213 -358 223 6 36 376 739 389 739 8 0 14 -2 14 -5z"/>
<path d="M923 1543 l-112 -218 216 -123 c118 -68 216 -122 217 -120 4 6 -198
678 -204 678 -3 0 -56 -98 -117 -217z"/>
<path d="M4150 3153 c-24 -9 -1489 -871 -1548 -911 -63 -42 -134 -136 -165
-219 -22 -58 -22 -60 -25 -971 -2 -640 1 -925 8 -953 22 -80 83 -114 156 -87
63 22 1555 903 1605 947 54 48 106 132 125 203 20 78 21 1872 0 1922 -26 62
-94 92 -156 69z m-546 -970 c16 -60 -32 -125 -89 -120 -24 2 -24 0 -6 -243 14
-186 8 -578 -10 -699 -15 -99 -44 -172 -84 -208 -63 -59 -123 -32 -112 49 8
56 47 93 90 84 l30 -6 -9 102 c-15 173 -11 844 5 908 28 112 79 173 140 168
30 -3 37 -8 45 -35z"/>
</g>
</svg>
