<svg viewBox="0 0 232 232" xmlns="http://www.w3.org/2000/svg">
  <path d="M108.32 1.58c7.26-2.35 15.34-.84 21.5 3.58 24.24 14.12 48.51 28.2 72.75 42.32 2.32 1.36 4.65 3.57 4.5 6.49-.13 2.92-2.58 4.92-4.91 6.26-24.82 14.52-49.62 29.06-74.42 43.6-7.69 4.5-17.79 3.49-24.94-1.62C78.56 88.07 54.28 74 30.04 59.87c-2.49-1.42-5.11-3.72-4.82-6.87.23-3.07 2.99-4.96 5.4-6.38 24.63-14.4 49.24-28.83 73.85-43.26 1.24-.68 2.51-1.33 3.85-1.78m12.34 40.12c-1.23 1.44 1.07 2.59 2.34 2.47 3.22.05 6.58-.15 9.56 1.34 2.2 1.07 4.94 2.6 5.16 5.33-.61 3.47-4.46 4.75-7.06 6.49-.67-2.13-1.38-4.44-3.39-5.69-4.96-3.47-11.29-4.31-17.2-4.22-6.52.41-13.51 1.72-18.58 6.14-2.19 1.86-2.56 5.38-.5 7.48 4.48 4.91 11.67 5.8 17.97 5.44 10.72-.82 21.42-4.1 30.32-10.24 2.67-1.86 5.38-4.77 4.8-8.3-.75-3.61-4.35-5.58-7.58-6.62-5.16-1.49-10.71-.91-15.84.38z" />
  <path d="M104.1 54.14c6.52-2.13 14.37-3.86 20.52.13 2.28 1.27 2.1 5.27-.63 5.77-7.25 2.54-15.11 3.88-22.76 2.66-2.12-.3-3.98-1.4-5.68-2.63 1.38-3.52 5.36-4.64 8.55-5.93zM16.41 71.55c2.57-1.13 5.36.07 7.6 1.39 22.85 13.51 45.72 27 68.58 40.5 2.68 1.61 5.47 3.06 7.92 5.01 5.46 4.46 8.78 11.46 8.56 18.53-.02 28.67-.01 57.34-.01 86 .08 2.88-.54 6.35-3.34 7.83-2.72 1.42-5.77.07-8.16-1.37-24.51-14.52-49.06-28.97-73.58-43.47-6.66-3.82-11.25-11.16-11.14-18.91-.05-29.02.01-58.05-.03-87.07-.05-3.09.44-6.96 3.6-8.44m32.55 68.43c-4.24 8.6-8.99 16.97-12.9 25.73 10 5.75 19.95 11.61 29.94 17.4 2.59 1.43 5 3.32 7.94 3.99-.18-1.21-.41-2.4-.69-3.59-4.68-15.9-9.31-31.81-13.97-47.71-.93-3.05-1.5-6.25-3.19-9-2.87 4.11-4.74 8.79-7.13 13.18zM210.45 71.74c2.21-1.02 5.16-.91 6.85 1.02 1.82 1.93 1.91 4.74 1.95 7.24-.04 28.99 0 57.98-.02 86.97.13 7.84-4.47 15.27-11.25 19.07-24.71 14.6-49.44 29.2-74.17 43.8-2.42 1.44-5.78 2.43-8.21.48-2.24-1.7-2.59-4.71-2.6-7.31v-86.08c-.21-8.22 4.32-16.32 11.4-20.47 24.52-14.51 49.07-28.96 73.59-43.47.79-.46 1.61-.88 2.46-1.25m-37.01 59.15c-.93 15.76-.9 31.58.58 47.31-4.36-1.5-7.87 3.88-5.83 7.58 1.51 2.07 4.41.66 5.76-.85 3.68-4 4.1-9.78 4.41-14.94.23-9.69.79-19.41.11-29.1-.3-4.7-.82-9.39-.78-14.1 3.78.83 6.96-3.23 5.97-6.74-.65-1.81-3.08-2.34-4.54-1.13-4.07 2.5-5.21 7.55-5.68 11.97z" />
  <path d="M41.03 164.58c4.37-8.54 8.74-17.07 13.14-25.59 3.92 13.33 7.81 26.67 11.74 40.01-8.3-4.8-16.58-9.63-24.88-14.42z" />
</svg>
